<svg width="55" height="55" viewBox="0 0 55 55" fill="none" xmlns="http://www.w3.org/2000/svg">
<mask id="path-1-inside-1_1234_667" fill="white">
<path d="M27.5 0C35.094 0 41.9689 3.07769 46.9452 8.05475C51.9214 13.0309 55 19.9066 55 27.5C55 35.094 51.9223 41.9689 46.9452 46.9452C41.9691 51.9214 35.0934 55 27.5 55C19.906 55 13.0311 51.9223 8.05476 46.9452C3.07861 41.9691 0 35.0934 0 27.5C0 19.906 3.0777 13.0311 8.05476 8.05475C13.0309 3.0786 19.9066 0 27.5 0ZM45.0289 9.97106C40.5433 5.48477 34.3457 2.71053 27.5 2.71053C20.6543 2.71053 14.4564 5.48545 9.97106 9.97106C5.48477 14.4567 2.71053 20.6543 2.71053 27.5C2.71053 34.3457 5.48545 40.5436 9.97106 45.0289C14.4567 49.5152 20.6543 52.2895 27.5 52.2895C34.3457 52.2895 40.5436 49.5146 45.0289 45.0289C49.5152 40.5433 52.2895 34.3457 52.2895 27.5C52.2895 20.6543 49.5146 14.4564 45.0289 9.97106Z"/>
</mask>
<path d="M27.5 0C35.094 0 41.9689 3.07769 46.9452 8.05475C51.9214 13.0309 55 19.9066 55 27.5C55 35.094 51.9223 41.9689 46.9452 46.9452C41.9691 51.9214 35.0934 55 27.5 55C19.906 55 13.0311 51.9223 8.05476 46.9452C3.07861 41.9691 0 35.0934 0 27.5C0 19.906 3.0777 13.0311 8.05476 8.05475C13.0309 3.0786 19.9066 0 27.5 0ZM45.0289 9.97106C40.5433 5.48477 34.3457 2.71053 27.5 2.71053C20.6543 2.71053 14.4564 5.48545 9.97106 9.97106C5.48477 14.4567 2.71053 20.6543 2.71053 27.5C2.71053 34.3457 5.48545 40.5436 9.97106 45.0289C14.4567 49.5152 20.6543 52.2895 27.5 52.2895C34.3457 52.2895 40.5436 49.5146 45.0289 45.0289C49.5152 40.5433 52.2895 34.3457 52.2895 27.5C52.2895 20.6543 49.5146 14.4564 45.0289 9.97106Z" fill="#98EAF3"/>
<path d="M46.9452 8.05475L36.3379 18.6606L36.3386 18.6614L46.9452 8.05475ZM46.9452 46.9452L36.3394 36.3379L36.3386 36.3386L46.9452 46.9452ZM8.05476 46.9452L18.6621 36.3394L18.6614 36.3386L8.05476 46.9452ZM8.05476 8.05475L18.6606 18.6621L18.6614 18.6614L8.05476 8.05475ZM45.0289 9.97106L34.4215 20.5769L34.4226 20.5779L45.0289 9.97106ZM9.97106 9.97106L20.5769 20.5785L20.5779 20.5774L9.97106 9.97106ZM9.97106 45.0289L20.5785 34.4231L20.5774 34.4221L9.97106 45.0289ZM45.0289 45.0289L34.4231 34.4215L34.4221 34.4226L45.0289 45.0289ZM27.5 0V15C30.9564 15 34.0602 16.3826 36.3379 18.6606L46.9452 8.05475L57.5526 -2.55113C49.8776 -10.2272 39.2317 -15 27.5 -15V0ZM46.9452 8.05475L36.3386 18.6614C38.617 20.9397 40 24.045 40 27.5H55H70C70 15.7683 65.2258 5.12209 57.5518 -2.55185L46.9452 8.05475ZM55 27.5H40C40 30.9564 38.6174 34.0602 36.3394 36.3379L46.9452 46.9452L57.5511 57.5526C65.2272 49.8776 70 39.2317 70 27.5H55ZM46.9452 46.9452L36.3386 36.3386C34.0603 38.617 30.955 40 27.5 40V55V70C39.2317 70 49.8779 65.2258 57.5518 57.5518L46.9452 46.9452ZM27.5 55V40C24.0436 40 20.9398 38.6174 18.6621 36.3394L8.05476 46.9452L-2.55257 57.5511C5.12245 65.2272 15.7683 70 27.5 70V55ZM8.05476 46.9452L18.6614 36.3386C16.383 34.0603 15 30.955 15 27.5H0H-15C-15 39.2317 -10.2258 49.8779 -2.55184 57.5518L8.05476 46.9452ZM0 27.5H15C15 24.0436 16.3826 20.9398 18.6606 18.6621L8.05476 8.05475L-2.55112 -2.55257C-10.2272 5.12244 -15 15.7683 -15 27.5H0ZM8.05476 8.05475L18.6614 18.6614C20.9397 16.383 24.045 15 27.5 15V0V-15C15.7683 -15 5.12209 -10.2258 -2.55184 -2.55185L8.05476 8.05475ZM45.0289 9.97106L55.6364 -0.634742C48.4516 -7.82055 38.4827 -12.2895 27.5 -12.2895V2.71053V17.7105C30.2087 17.7105 32.635 18.7901 34.4215 20.5769L45.0289 9.97106ZM27.5 2.71053V-12.2895C16.5166 -12.2895 6.54792 -7.81937 -0.63581 -0.635276L9.97106 9.97106L20.5779 20.5774C22.365 18.7903 24.7921 17.7105 27.5 17.7105V2.71053ZM9.97106 9.97106L-0.634742 -0.636345C-7.82055 6.54837 -12.2895 16.5173 -12.2895 27.5H2.71053H17.7105C17.7105 24.7913 18.7901 22.365 20.5769 20.5785L9.97106 9.97106ZM2.71053 27.5H-12.2895C-12.2895 38.4834 -7.81937 48.4521 -0.635276 55.6358L9.97106 45.0289L20.5774 34.4221C18.7903 32.635 17.7105 30.2079 17.7105 27.5H2.71053ZM9.97106 45.0289L-0.636345 55.6348C6.54837 62.8206 16.5173 67.2895 27.5 67.2895V52.2895V37.2895C24.7913 37.2895 22.365 36.2099 20.5785 34.4231L9.97106 45.0289ZM27.5 52.2895V67.2895C38.4834 67.2895 48.4521 62.8194 55.6358 55.6353L45.0289 45.0289L34.4221 34.4226C32.635 36.2097 30.2079 37.2895 27.5 37.2895V52.2895ZM45.0289 45.0289L55.6348 55.6364C62.8206 48.4516 67.2895 38.4827 67.2895 27.5H52.2895H37.2895C37.2895 30.2087 36.2099 32.635 34.4231 34.4215L45.0289 45.0289ZM52.2895 27.5H67.2895C67.2895 16.5166 62.8194 6.54792 55.6353 -0.63581L45.0289 9.97106L34.4226 20.5779C36.2097 22.365 37.2895 24.7921 37.2895 27.5H52.2895Z" fill="#98EAF3" mask="url(#path-1-inside-1_1234_667)"/>
<mask id="path-3-inside-2_1234_667" fill="white">
<path d="M17.1031 28.9372C16.6216 28.3979 15.8417 28.3979 15.3611 28.9372C14.8796 29.4764 14.8796 30.3499 15.3611 30.8882L22.479 38.8603C22.9604 39.3995 23.7403 39.3995 24.221 38.8603L24.2274 38.8522L41.6352 19.3554C42.1166 18.8162 42.1166 17.9427 41.6352 17.4044C41.1538 16.8652 40.3739 16.8652 39.8932 17.4044L23.3496 35.9333L17.1031 28.9372Z"/>
</mask>
<path d="M17.1031 28.9372C16.6216 28.3979 15.8417 28.3979 15.3611 28.9372C14.8796 29.4764 14.8796 30.3499 15.3611 30.8882L22.479 38.8603C22.9604 39.3995 23.7403 39.3995 24.221 38.8603L24.2274 38.8522L41.6352 19.3554C42.1166 18.8162 42.1166 17.9427 41.6352 17.4044C41.1538 16.8652 40.3739 16.8652 39.8932 17.4044L23.3496 35.9333L17.1031 28.9372Z" fill="#98EAF3"/>
<path d="M17.1031 28.9372L28.2922 18.9469L28.2921 18.9469L17.1031 28.9372ZM15.3611 28.9372L26.5502 38.9274L26.5584 38.9181L15.3611 28.9372ZM15.3611 30.8882L26.5502 20.898L26.5419 20.8887L15.3611 30.8882ZM22.479 38.8603L33.6681 28.87L22.479 38.8603ZM24.221 38.8603L35.4183 48.8412L35.7037 48.5211L35.9703 48.1851L24.221 38.8603ZM24.2274 38.8522L13.0383 28.8619L12.7486 29.1865L12.4781 29.5273L24.2274 38.8522ZM41.6352 19.3554L30.4461 9.36521L30.4461 9.36521L41.6352 19.3554ZM41.6352 17.4044L30.4461 27.3947L30.4544 27.4039L41.6352 17.4044ZM39.8932 17.4044L51.0823 27.3947L51.0905 27.3854L39.8932 17.4044ZM23.3496 35.9333L12.1605 45.9235L23.3496 58.4553L34.5387 45.9235L23.3496 35.9333ZM17.1031 28.9372L28.2921 18.9469C21.8517 11.7336 10.6144 11.7194 4.16376 18.9562L15.3611 28.9372L26.5584 38.9181C21.069 45.0765 11.3916 45.0623 5.91401 38.9274L17.1031 28.9372ZM15.3611 28.9372L4.17202 18.9469C-1.38644 25.1724 -1.39767 34.6508 4.18029 40.8877L15.3611 30.8882L26.5419 20.8887C31.1569 26.049 31.1457 33.7804 26.5501 38.9274L15.3611 28.9372ZM15.3611 30.8882L4.17202 40.8784L11.2899 48.8505L22.479 38.8603L33.6681 28.87L26.5501 20.898L15.3611 30.8882ZM22.479 38.8603L11.2899 48.8505C17.7304 56.0638 28.9676 56.0781 35.4183 48.8412L24.221 38.8603L13.0237 28.8793C18.5131 22.7209 28.1905 22.7351 33.6681 28.87L22.479 38.8603ZM24.221 38.8603L35.9703 48.1851L35.9767 48.177L24.2274 38.8522L12.4781 29.5273L12.4717 29.5354L24.221 38.8603ZM24.2274 38.8522L35.4165 48.8424L52.8243 29.3457L41.6352 19.3554L30.4461 9.36521L13.0383 28.8619L24.2274 38.8522ZM41.6352 19.3554L52.8243 29.3457C58.3827 23.1202 58.394 13.6418 52.816 7.40492L41.6352 17.4044L30.4544 27.4039C25.8393 22.2436 25.8506 14.5122 30.4461 9.36521L41.6352 19.3554ZM41.6352 17.4044L52.8243 7.41418C46.3838 0.200842 35.1466 0.186621 28.6959 7.42344L39.8932 17.4044L51.0905 27.3854C45.6011 33.5438 35.9237 33.5296 30.4461 27.3946L41.6352 17.4044ZM39.8932 17.4044L28.7041 7.41418L12.1605 25.943L23.3496 35.9333L34.5387 45.9235L51.0823 27.3946L39.8932 17.4044ZM23.3496 35.9333L34.5387 25.9431L28.2922 18.9469L17.1031 28.9372L5.91399 38.9274L12.1605 45.9235L23.3496 35.9333Z" fill="#98EAF3" mask="url(#path-3-inside-2_1234_667)"/>
</svg>
