<svg width="12" height="12" viewBox="0 0 12 12" fill="none" xmlns="http://www.w3.org/2000/svg">
<g opacity="0.5">
<path d="M12 6.00015C12 9.30832 9.30855 12 6.00015 12C2.69168 12 0 9.30832 0 6.00015C0 2.69168 2.69145 0 6.00015 0C7.09338 0 8.16405 0.297486 9.09637 0.860447C9.31452 0.992478 9.3846 1.27601 9.25279 1.49414C9.12099 1.71229 8.8377 1.7826 8.6191 1.65103C7.83079 1.17466 6.92502 0.923081 6 0.923081C3.20055 0.923081 0.922972 3.20057 0.922972 6.00011C0.922972 8.79964 3.20047 11.0768 5.9997 11.0768C8.79915 11.0768 11.0764 8.79934 11.0764 6.00011C11.0764 4.68449 10.5743 3.43644 9.66279 2.48673C9.48633 2.30283 9.4924 2.01083 9.6763 1.83413C9.85998 1.65789 10.152 1.66328 10.3289 1.84764C11.4062 2.97031 11.9996 4.44498 11.9996 6.00007L12 6.00015Z" fill="white"/>
<path d="M5.99908 1.8449C6.25398 1.8449 6.46056 2.05137 6.46056 2.30638V5.99857C6.46056 6.2537 6.25386 6.46004 5.99908 6.46004H3.69145C3.43655 6.46004 3.22998 6.25358 3.22998 5.99857C3.22998 5.74344 3.43667 5.5371 3.69145 5.5371H5.53761V2.30632C5.5375 2.05119 5.74419 1.84473 5.99908 1.84473V1.8449Z" fill="white"/>
</g>
</svg>
