<svg width="9" height="17" viewBox="0 0 9 17" fill="none" xmlns="http://www.w3.org/2000/svg">
<path d="M4.26358 16.5619C4.34857 16.7191 4.42741 16.8649 4.49994 17C4.57212 16.8649 4.6513 16.7191 4.73595 16.5619C6.49417 13.3055 10.6114 5.68003 8.32614 1.99152C7.62409 0.857819 6.33598 0.188287 4.49995 0C2.66339 0.18829 1.37581 0.857819 0.673756 1.99152C-1.61129 5.6798 2.50588 13.3055 4.26358 16.5619ZM4.50011 1.36324C6.24641 1.36324 7.66689 2.63133 7.66689 4.1902C7.66689 5.7491 6.24588 7.01715 4.50011 7.01715C2.75433 7.01715 1.33381 5.74906 1.33381 4.1902C1.33364 2.63129 2.75381 1.36324 4.50011 1.36324Z" fill="white"/>
</svg>
