<svg width="19" height="20" viewBox="0 0 19 20" fill="none" xmlns="http://www.w3.org/2000/svg">
<path d="M18.9078 5.32974C18.8202 5.43561 18.6901 5.46645 18.577 5.40853L15.8157 3.98783C15.5297 4.22063 15.2287 4.44215 14.9162 4.65105L15.1852 8.56674V8.56693C15.1957 8.71812 15.1322 8.86235 15.0242 8.93381C14.9159 9.00508 14.7839 8.98966 14.6886 8.89432L11.9594 6.175C11.6501 6.29516 11.3734 6.39595 10.9019 6.54169L9.7379 10.6409C9.69722 10.784 9.59172 10.8833 9.46953 10.8932C9.34733 10.9034 9.23212 10.8222 9.17656 10.6868L7.72826 7.15264C7.35773 7.17765 7.06628 7.18611 6.71216 7.17388L4.9501 10.2163L4.95025 10.2165C4.87891 10.3398 4.75504 10.3985 4.63543 10.3656C4.51581 10.3327 4.42367 10.2146 4.40106 10.0655L3.84015 6.37169C3.51455 6.15657 3.22582 5.86473 2.99025 5.5125L3.46675 5.0373C5.79499 8.61601 17.206 4.70164 17.6346 0.041362L18.2426 0.127109C18.1964 0.588952 18.078 1.03498 17.8942 1.4406L18.9794 4.92187C19.0236 5.06328 18.9953 5.22387 18.9076 5.32975L18.9078 5.32974ZM16.0078 14.6559L15.5332 14.1777C13.1942 17.741 1.79548 13.7639 1.38434 9.09987L0.776112 9.18205C0.820587 9.64389 0.937166 10.0907 1.11962 10.4974L0.0210594 13.9725C-0.0235671 14.1138 0.00405867 14.2743 0.0913415 14.3808C0.178624 14.4872 0.308715 14.5188 0.421952 14.4613L3.18857 13.0569C3.47364 13.2912 3.77388 13.5146 4.08537 13.7251L3.80152 17.6393H3.80167C3.79059 17.7903 3.85343 17.935 3.96121 18.0069C4.06898 18.0789 4.20104 18.0642 4.29683 17.9697L7.03628 15.2661C7.34215 15.3868 7.61887 15.4897 8.09249 15.6388L9.24083 19.7448L9.24098 19.745C9.28106 19.8883 9.38625 19.9883 9.50845 19.9991C9.63064 20.0098 9.74616 19.9291 9.80217 19.7943L11.264 16.268C11.6009 16.2991 11.939 16.3066 12.2766 16.2904L14.0302 19.3482H14.03C14.1009 19.472 14.2246 19.5314 14.3444 19.4992C14.464 19.4671 14.5567 19.3496 14.5798 19.2004L15.156 15.501L15.1562 15.5012C15.4815 15.2902 15.7708 15.003 16.008 14.6558L16.0078 14.6559ZM7.97049 2.27383C8.21396 2.27383 8.44741 2.15405 8.6194 1.9408C8.79154 1.72756 8.88824 1.43851 8.88824 1.13692C8.88824 0.835479 8.79154 0.546242 8.6194 0.333031C8.44742 0.119786 8.21394 0 7.97049 0C7.72716 0 7.49368 0.119786 7.32157 0.333031C7.14958 0.546275 7.05289 0.835513 7.05289 1.13692C7.05304 1.43835 7.14988 1.7274 7.32187 1.94042C7.49401 2.15366 7.72734 2.27346 7.97049 2.27383ZM11.0296 12.8848C11.0296 12.5832 10.9329 12.294 10.7608 12.0809C10.5887 11.8677 10.3553 11.7479 10.1119 11.7479C9.86856 11.7479 9.63508 11.8677 9.46297 12.0809C9.29083 12.294 9.19414 12.5832 9.19414 12.8848C9.19414 13.1862 9.29083 13.4755 9.46297 13.6885C9.63511 13.9017 9.86859 14.0215 10.1119 14.0215C10.3552 14.0211 10.5885 13.9014 10.7605 13.6883C10.9326 13.4751 11.0293 13.186 11.0296 12.8848ZM16.5361 10.611C16.2927 10.611 16.0593 10.7308 15.8871 10.944C15.715 11.1572 15.6183 11.4463 15.6183 11.7479C15.6183 12.0493 15.715 12.3386 15.8871 12.5518C16.0593 12.765 16.2928 12.8848 16.5361 12.8848C16.7795 12.8848 17.0129 12.765 17.185 12.5518C17.3571 12.3385 17.4538 12.0493 17.4538 11.7479C17.4535 11.4464 17.3568 11.1574 17.1847 10.9444C17.0127 10.7311 16.7794 10.6113 16.5361 10.611ZM1.85253 15.5373C1.60905 15.5373 1.3756 15.6571 1.20361 15.8703C1.03147 16.0836 0.934776 16.3726 0.934776 16.6742C0.934776 16.9756 1.03147 17.2649 1.20361 17.4781C1.37559 17.6913 1.60907 17.8111 1.85253 17.8111C2.09585 17.8111 2.32933 17.6913 2.50144 17.4781C2.67343 17.2648 2.77012 16.9756 2.77012 16.6742C2.76997 16.3728 2.67313 16.0837 2.50114 15.8707C2.329 15.6575 2.09583 15.5377 1.85253 15.5373ZM15.708 18.301L16.1406 18.8369L16.7523 18.0791L16.3197 17.5432L15.708 18.301ZM2.68063 2.16263L2.248 1.62688L1.63627 2.3847L2.0689 2.92064L2.68063 2.16263ZM11.3355 0.757912H10.7237V1.89483H11.3355V0.757912ZM13.1708 9.09475H12.5591V10.2317H13.1708V9.09475ZM14.9166 2.00569L14.3049 1.24788L13.8723 1.78382L14.484 2.54163L14.9166 2.00569ZM5.43368 11.4796L5.00106 12.0155L5.61279 12.7733L6.04541 12.2374L5.43368 11.4796ZM6.53069 18.0786L7.14242 18.8364L7.57505 18.3005L6.96332 17.5426L6.53069 18.0786ZM6.1351 5.30519C6.25881 5.30519 6.37038 5.21286 6.41774 5.07126C6.46511 4.92966 6.43884 4.76663 6.35141 4.65831C6.26398 4.54981 6.13237 4.51747 6.01807 4.57614C5.90377 4.63481 5.82923 4.77283 5.82923 4.92628C5.82923 5.02669 5.86141 5.12316 5.91879 5.19424C5.97617 5.26514 6.05404 5.30519 6.1351 5.30519ZM17.1476 7.19992C17.1476 7.04667 17.073 6.90845 16.9587 6.84978C16.8443 6.79111 16.7128 6.82364 16.6252 6.93196C16.5378 7.04027 16.5117 7.20331 16.5589 7.3449C16.6063 7.4865 16.7178 7.57884 16.8415 7.57884C16.9227 7.57884 17.0005 7.53897 17.0578 7.46789C17.1152 7.39681 17.1476 7.30034 17.1476 7.19992ZM1.85237 7.57884C1.85237 7.73209 1.9269 7.87031 2.04121 7.92898C2.15551 7.98764 2.28711 7.9553 2.37455 7.8468C2.46198 7.73849 2.48824 7.57545 2.44088 7.43385C2.39352 7.29226 2.28195 7.19992 2.15824 7.19992C1.98929 7.19992 1.85237 7.36954 1.85237 7.57884Z" fill="white"/>
</svg>
