<svg width="27" height="34" viewBox="0 0 27 34" fill="none" xmlns="http://www.w3.org/2000/svg">
<path d="M21.123 17.8784C21.0978 17.5673 20.6856 17.323 20.1854 17.323L16.2711 17.3228C15.4737 13.7176 13.7138 11.7236 11.1722 11.7236C8.63087 11.7236 6.87132 13.7177 6.07391 17.3233L2.1599 17.3231C1.65998 17.3231 1.24774 17.5674 1.2223 17.8785L0.00119752 32.9847C-0.0256402 33.319 0.40205 33.599 0.93879 33.599H21.406C21.9431 33.599 22.3705 33.3188 22.3436 32.9847L21.123 17.8784ZM6.11038 22.9464C5.60675 22.9464 5.19844 22.6769 5.19844 22.3445C5.19844 22.012 5.60671 21.7425 6.11038 21.7425C6.61405 21.7425 7.02232 22.012 7.02232 22.3445C7.02232 22.6769 6.61405 22.9464 6.11038 22.9464ZM7.11478 17.3226C7.91365 13.7835 9.58213 12.4119 11.1724 12.4119C12.7627 12.4119 14.4315 13.7833 15.2309 17.3226H7.11478ZM16.2356 22.9464C15.732 22.9464 15.3237 22.6769 15.3237 22.3445C15.3237 22.012 15.7319 21.7425 16.2356 21.7425C16.7393 21.7425 17.1476 22.012 17.1476 22.3445C17.1476 22.6769 16.7393 22.9464 16.2356 22.9464Z" fill="#FFB856"/>
<ellipse cx="21.8794" cy="3.9" rx="5.12069" ry="3.9" fill="#E23636"/>
</svg>
