<svg width="16" height="16" viewBox="0 0 16 16" fill="none" xmlns="http://www.w3.org/2000/svg">
<path d="M5.64477 10.8817L3.84431 7.75624C3.79675 7.67372 3.72167 7.61568 3.63293 7.59293C3.60596 7.58599 3.5788 7.58252 3.55165 7.58252C3.48951 7.58252 3.42865 7.60045 3.37434 7.63554L1.14166 9.07525C1.06367 9.12557 1.00882 9.20501 0.987314 9.29891C0.965811 9.39299 0.980025 9.49017 1.02759 9.5725L2.82804 12.6979C2.8756 12.7804 2.95068 12.8385 3.03943 12.8614C3.12817 12.8842 3.22002 12.8691 3.29802 12.8188L5.53069 11.3791C5.69178 11.2752 5.74299 11.0521 5.64477 10.8817Z" fill="white"/>
<path d="M5.29458 12.0403L4.02734 12.8574L6.36153 15.6042L6.37138 15.6213C6.47507 15.8012 6.63871 15.9277 6.83224 15.9774C7.02577 16.0272 7.22604 15.994 7.39606 15.8845C7.74194 15.6614 7.85547 15.186 7.65374 14.8167L5.29458 12.0403Z" fill="white"/>
<path d="M8.29988 2.07033C8.26726 2.01384 8.21605 2.01423 8.19509 2.01712C8.1745 2.02001 8.12457 2.03331 8.10653 2.09675C7.50991 4.20646 6.2381 6.05762 4.52531 7.30908L4.20312 7.5445L5.98735 10.642L6.33267 10.4469C8.16881 9.40972 10.3068 9.06189 12.3525 9.46777C12.4139 9.47972 12.4482 9.43904 12.4601 9.42092C12.4719 9.40279 12.496 9.35439 12.4633 9.2979L8.29988 2.07033Z" fill="white"/>
<path d="M10.1234 3.68081C10.1806 3.71976 10.2448 3.73827 10.308 3.73827C10.4206 3.73827 10.5307 3.67946 10.5961 3.57187L12.4272 0.557708C12.5294 0.389581 12.4833 0.165728 12.3244 0.0575522C12.1653 -0.0506134 11.9539 -0.00183204 11.8517 0.166295L10.0206 3.18046C9.91857 3.34879 9.96451 3.57263 10.1234 3.68081Z" fill="white"/>
<path d="M15.6255 6.10962L12.2544 6.45031C12.0663 6.4694 11.9285 6.64601 11.9464 6.84499C11.9633 7.03221 12.1122 7.17238 12.2864 7.17238C12.2974 7.17238 12.3083 7.1718 12.3194 7.17084L15.6905 6.83015C15.8786 6.81106 16.0163 6.63445 15.9985 6.43547C15.9804 6.23649 15.8133 6.09034 15.6255 6.10962Z" fill="white"/>
<path d="M11.0056 5.28222C11.0701 5.39405 11.1826 5.45575 11.2981 5.45575C11.3588 5.45575 11.4202 5.43859 11.4758 5.40273L15.0974 3.06725C15.2587 2.96313 15.3097 2.74063 15.2115 2.56981C15.1133 2.39917 14.9026 2.34519 14.7414 2.44911L11.1197 4.78459C10.9584 4.8889 10.9072 5.11159 11.0056 5.28222Z" fill="white"/>
<path d="M0.0164072 11.0087L0.465061 10.7193L0.678634 11.09L0 11.5277C0.0191344 11.701 0.0634177 11.8732 0.133758 12.0385L0.929393 11.5254L1.14297 11.8962L0.347332 12.4092C0.453939 12.5512 0.578217 12.6717 0.715073 12.769L1.39371 12.3315L1.60728 12.7023L1.15863 12.9915C1.57175 13.124 2.03189 13.0862 2.43477 12.8506L0.719408 9.87305C0.337087 10.1441 0.0945479 10.5594 0.0164072 11.0087Z" fill="white"/>
</svg>
