<svg width="16" height="18" viewBox="0 0 16 18" fill="none" xmlns="http://www.w3.org/2000/svg">
<path fill-rule="evenodd" clip-rule="evenodd" d="M1.65049 2.17141C3.0066 0.754892 4.96002 0.155893 6.83409 0.581564C8.70783 1.00731 10.2457 2.39923 10.9161 4.2759C11.5866 6.15263 11.2975 8.25701 10.1485 9.86086L11.5548 11.3306L11.7892 11.0855C11.8643 11.0069 11.9661 10.9625 12.0724 10.9624C12.1789 10.9624 12.2813 11.0068 12.3565 11.0855L15.5646 14.4361L15.5636 14.438C15.9433 14.8448 16.0893 15.4309 15.9464 15.979C15.8033 16.5273 15.3931 16.9555 14.8683 17.105C14.3435 17.2543 13.7821 17.1023 13.3927 16.7056L10.1847 13.355C10.1096 13.2764 10.0675 13.1702 10.0675 13.0591C10.0675 12.9478 10.1093 12.8408 10.1847 12.7622L10.42 12.5181L9.0128 11.0474C7.47758 12.2475 5.46297 12.5494 3.66612 11.8491C1.86937 11.1489 0.536528 9.54187 0.129008 7.58449C-0.27833 5.62708 0.294713 3.58782 1.65049 2.17141ZM5.65733 2.1675C4.59401 2.16756 3.57423 2.60884 2.82237 3.39406C2.07047 4.17949 1.64756 5.24512 1.64756 6.35598C1.64875 7.46617 2.0718 8.53085 2.82334 9.31594C3.57507 10.101 4.59437 10.543 5.65733 10.5445C6.72046 10.5445 7.74025 10.103 8.49229 9.31789C9.24418 8.53231 9.66709 7.46667 9.66709 6.35598C9.66709 5.24512 9.24422 4.17949 8.49229 3.39406C7.74024 2.60895 6.72047 2.1675 5.65733 2.1675Z" fill="white"/>
</svg>
