<svg width="31" height="11" viewBox="0 0 31 11" fill="none" xmlns="http://www.w3.org/2000/svg">
<path d="M0.0675154 7.70228C0.0859664 8.03973 0.107965 8.37766 0.134224 8.71562C0.209921 9.65784 1.4213 10.4385 2.79497 10.4557C11.1452 10.5511 19.4948 10.5516 27.8449 10.4557C29.4085 10.4361 30.7105 9.44044 30.4834 8.38952C30.2492 7.31496 29.971 6.23812 29.6564 5.15821C28.7727 2.22318 24.7445 0.0367353 20.4179 0.0118517C14.5436 -0.015527 8.66924 0.00456145 2.79522 0.0717922C1.42179 0.0889644 0.210163 0.86919 0.134467 1.81187C0.000102856 3.53054 -0.0332456 5.24942 0.0329855 6.96776L0.0675154 7.70228ZM8.44799 5.42111C8.44917 5.76763 8.04041 6.04755 7.53394 6.0471C5.96443 6.04548 4.39419 6.04305 2.82467 6.04013C2.31822 6.03884 1.90239 5.76019 1.89979 5.41737C1.89553 4.80515 1.90215 4.39706 1.91824 3.78505C1.92722 3.44225 2.34781 3.16262 2.85311 3.16022C4.41905 3.15374 5.98506 3.14872 7.55051 3.14515C8.05579 3.14386 8.4605 3.42396 8.45626 3.76998C8.44846 4.38818 8.44562 4.80245 8.44727 5.42081L8.44799 5.42111ZM16.0249 5.42192C16.0249 5.76925 15.613 6.05081 15.1066 6.05081C13.6042 6.05081 12.1027 6.05081 10.6005 6.04951C10.0941 6.04903 9.68104 5.76795 9.68062 5.42112C9.67944 4.8021 9.68133 4.38737 9.68725 3.76834C9.69079 3.42182 10.1043 3.13995 10.6095 3.13945C12.1076 3.13734 13.6061 3.13653 15.1042 3.13734C15.6095 3.13734 16.0206 3.41939 16.0225 3.76624C16.0249 4.38605 16.0256 4.80194 16.0249 5.42192ZM26.827 6.03849C24.1007 6.04384 23.2225 6.0474 20.4964 6.04951C19.9899 6.04951 19.5805 5.76876 19.5805 5.4219C19.5816 4.80238 19.5805 4.38703 19.5757 3.76751C19.5738 3.42066 19.9809 3.1394 20.4862 3.14023C22.579 3.14315 22.8841 3.14833 24.9773 3.15611C26.1071 3.16065 27.1208 3.67921 27.4311 4.41908L27.7767 5.20433C27.9447 5.62341 27.4699 6.03718 26.8263 6.03847L26.827 6.03849Z" fill="#98EAF3"/>
</svg>
