<svg width="21" height="22" viewBox="0 0 21 22" fill="none" xmlns="http://www.w3.org/2000/svg">
<path d="M7.14741 0.000196615C5.82813 0.000196615 4.88865 0.859388 4.88865 1.77525V2.02889H4.19017C1.88705 2.02889 0 3.39932 0 5.0719V15.2151C0 16.8877 1.88705 18.2581 4.19017 18.2581H4.26652L2.24791 20.6434C2.10063 20.8157 2.05407 21.0233 2.11823 21.2207C2.18267 21.4181 2.35215 21.5888 2.59012 21.695C2.82783 21.8013 3.114 21.8345 3.38557 21.7874C3.65715 21.7402 3.89185 21.6165 4.0375 21.4435L5.23792 20.033H15.7132L16.9136 21.4435C17.0595 21.6165 17.2934 21.7402 17.565 21.7874C17.8365 21.8345 18.1227 21.8013 18.3606 21.695C18.5983 21.5888 18.7681 21.4181 18.8322 21.2207C18.8964 21.0233 18.8498 20.8155 18.7026 20.6432L16.684 18.2579H16.7603C19.0634 18.2579 20.9505 16.8875 20.9505 15.2149V5.0717C20.9505 3.39912 19.0634 2.02869 16.7603 2.02869H16.0618V1.77506C16.0618 0.859242 15.1223 0 13.8031 0L7.14741 0.000196615ZM7.14741 1.52162H13.8037C13.8256 1.52162 13.9675 1.56704 13.9675 1.77526V2.02889H6.984V1.77526C6.984 1.56724 7.12548 1.52162 7.14741 1.52162ZM4.19017 3.55011H16.7606C17.3941 3.55011 17.9516 3.74653 18.3319 4.05717H2.61909C2.99947 3.74632 3.55634 3.55011 4.19017 3.55011ZM2.09498 5.5788H18.8558V10.3969H2.09498V5.5788ZM2.09498 11.9183H18.8558V15.2149C18.8558 16.071 17.9396 16.7364 16.7606 16.7364H4.19017C3.01137 16.7364 2.09498 16.071 2.09498 15.2149V11.9183ZM7.22351 12.679C6.94546 12.6894 6.68502 12.7796 6.49875 12.9299C6.31221 13.0799 6.21583 13.2777 6.23018 13.4794C6.2448 13.6813 6.36906 13.8707 6.57591 14.0059C6.78275 14.1412 7.05484 14.2112 7.33289 14.2006H13.6183C13.8988 14.2035 14.1687 14.1247 14.3685 13.9816C14.5683 13.8386 14.6807 13.6436 14.6807 13.4399C14.6807 13.2362 14.5683 13.0411 14.3685 12.898C14.1687 12.755 13.8985 12.6762 13.618 12.6791H7.33262C7.29634 12.6778 7.25978 12.6776 7.22351 12.679ZM4.53941 13.4399C3.76808 13.4399 3.14271 13.894 3.14271 14.4542C3.14271 15.0143 3.76811 15.4685 4.53941 15.4685C5.31074 15.4685 5.93611 15.0143 5.93611 14.4542C5.93611 13.894 5.31071 13.4399 4.53941 13.4399ZM16.4119 13.4399C15.6406 13.4399 15.0152 13.894 15.0152 14.4542C15.0152 15.0143 15.6406 15.4685 16.4119 15.4685C17.1832 15.4685 17.8086 15.0143 17.8086 14.4542C17.8086 13.894 17.1832 13.4399 16.4119 13.4399ZM7.22371 14.7078C6.94567 14.7182 6.68495 14.8083 6.49868 14.9585C6.31215 15.1085 6.21577 15.3063 6.23011 15.508C6.24473 15.71 6.369 15.8993 6.57584 16.0346C6.78269 16.1699 7.05478 16.2398 7.33283 16.2292H13.6182C13.8987 16.232 14.1687 16.1531 14.3684 16.0102C14.5682 15.8673 14.6806 15.672 14.6806 15.4685C14.6806 15.2648 14.5682 15.0696 14.3684 14.9266C14.1686 14.7837 13.8985 14.7048 13.618 14.7076H7.33256C7.29628 14.7062 7.25999 14.7064 7.22371 14.7078ZM6.7326 18.2579H14.2179L14.4253 18.5115H6.52483L6.7326 18.2579Z" fill="#98EAF3"/>
</svg>
